<svg width="48" height="48" viewBox="0 0 48 48" fill="none" xmlns="http://www.w3.org/2000/svg">
<rect width="48" height="48" rx="11.4118" fill="#1C1F23"/>
<path d="M35.2941 25.975C33.4595 26.4471 31.5336 26.4327 29.7062 25.9334C27.8789 25.434 26.2133 24.4669 24.8738 23.1274C23.5343 21.7879 22.5671 20.1223 22.0677 18.2949C21.5684 16.4676 21.554 14.5416 22.0261 12.707C19.5628 12.8173 17.1846 13.6416 15.1815 15.0795C13.1783 16.5175 11.6366 18.507 10.7441 20.8057C9.85168 23.1043 9.64703 25.6129 10.1551 28.0259C10.6632 30.4388 11.862 32.6519 13.6057 34.3955C15.3493 36.1391 17.5623 37.3379 19.9753 37.846C22.3882 38.3541 24.8968 38.1494 27.1955 37.257C29.4941 36.3645 31.4836 34.8228 32.9216 32.8196C34.3595 30.8165 35.1838 28.4383 35.2941 25.975Z" fill="white"/>
<path fill-rule="evenodd" clip-rule="evenodd" d="M31.0584 15.5312C31.3579 15.5312 31.6452 15.6502 31.857 15.862C32.0688 16.0739 32.1878 16.3611 32.1878 16.6607V20.0489C32.1878 20.3484 32.0688 20.6357 31.857 20.8475C31.6452 21.0593 31.3579 21.1783 31.0584 21.1783C30.7589 21.1783 30.4716 21.0593 30.2598 20.8475C30.048 20.6357 29.929 20.3484 29.929 20.0489V16.6607C29.929 16.3611 30.048 16.0739 30.2598 15.862C30.4716 15.6502 30.7589 15.5312 31.0584 15.5312Z" fill="white"/>
<path d="M28.5657 17.5562C28.3539 17.768 28.2349 18.0552 28.2349 18.3548C28.2349 18.6543 28.3539 18.9416 28.5657 19.1534C28.7775 19.3652 29.0647 19.4842 29.3643 19.4842H32.7525C33.0521 19.4842 33.3393 19.3652 33.5511 19.1534C33.7629 18.9416 33.8819 18.6543 33.8819 18.3548C33.8819 18.0552 33.7629 17.768 33.5511 17.5562C33.3393 17.3444 33.0521 17.2254 32.7525 17.2254H29.3643C29.0647 17.2254 28.7775 17.3444 28.5657 17.5562Z" fill="white"/>
<path fill-rule="evenodd" clip-rule="evenodd" d="M36.7059 8.4707C37.0054 8.4707 37.2927 8.58969 37.5045 8.8015C37.7163 9.01331 37.8353 9.30058 37.8353 9.60012V12.9884C37.8353 13.2879 37.7163 13.5752 37.5045 13.787C37.2927 13.9988 37.0054 14.1178 36.7059 14.1178C36.4063 14.1178 36.119 13.9988 35.9072 13.787C35.6954 13.5752 35.5764 13.2879 35.5764 12.9884V9.60012C35.5764 9.30058 35.6954 9.01331 35.9072 8.8015C36.119 8.58969 36.4063 8.4707 36.7059 8.4707Z" fill="white"/>
<path d="M34.2131 10.4956C34.0013 10.7074 33.8823 10.9947 33.8823 11.2942C33.8823 11.5938 34.0013 11.881 34.2131 12.0928C34.4249 12.3047 34.7122 12.4236 35.0117 12.4236H38.4C38.6995 12.4236 38.9868 12.3047 39.1986 12.0928C39.4104 11.881 39.5294 11.5938 39.5294 11.2942C39.5294 10.9947 39.4104 10.7074 39.1986 10.4956C38.9868 10.2838 38.6995 10.1648 38.4 10.1648H35.0117C34.7122 10.1648 34.4249 10.2838 34.2131 10.4956Z" fill="white"/>
</svg>
