<svg width="48" height="48" viewBox="0 0 48 48" fill="none" xmlns="http://www.w3.org/2000/svg">
<rect width="48" height="48" rx="8" fill="#32BEA6"/>
<path d="M25.6737 8.47071C26.1302 8.47071 26.5386 8.75489 26.6924 9.18039L27.7887 12.2195C28.1816 12.3173 28.5186 12.4151 28.8043 12.5176C29.1164 12.6294 29.5186 12.7987 30.0155 13.0301L32.5685 11.679C32.7769 11.5686 33.0154 11.5288 33.2484 11.5655C33.4813 11.6021 33.6961 11.7134 33.8605 11.8825L36.106 14.2041C36.4041 14.5131 36.488 14.965 36.3203 15.3595L35.123 18.1656C35.3218 18.5305 35.4802 18.8427 35.6013 19.1036C35.7317 19.3878 35.8932 19.7791 36.0858 20.2838L38.8763 21.4795C39.2956 21.6581 39.5549 22.0774 39.527 22.5262L39.322 25.7485C39.308 25.9579 39.2328 26.1585 39.1058 26.3255C38.9789 26.4925 38.8056 26.6186 38.6077 26.688L35.9647 27.6276C35.8886 27.9925 35.8094 28.3046 35.7255 28.5686C35.5903 28.9763 35.4358 29.3774 35.2628 29.7706L36.5905 32.7056C36.6842 32.9118 36.7094 33.1426 36.6625 33.3642C36.6155 33.5858 36.4989 33.7866 36.3296 33.9371L33.8046 36.1919C33.6383 36.3398 33.4308 36.4333 33.2099 36.46C32.989 36.4866 32.7652 36.4451 32.5685 36.341L29.9659 34.962C29.5587 35.1776 29.1386 35.3679 28.708 35.5319L27.5713 35.9574L26.5619 38.7527C26.4871 38.9574 26.3522 39.1347 26.1748 39.2614C25.9975 39.388 25.786 39.4581 25.5681 39.4624L22.6176 39.5292C22.3939 39.535 22.1739 39.4714 21.9879 39.3471C21.8018 39.2228 21.6589 39.0439 21.5787 38.835L20.3892 35.6872C19.9833 35.5485 19.5815 35.3983 19.1842 35.2369C18.8592 35.0962 18.5391 34.9445 18.2245 34.7819L15.274 36.0428C15.0796 36.1258 14.8652 36.1504 14.6571 36.1138C14.4489 36.0771 14.2559 35.9807 14.1016 35.8363L11.9182 33.788C11.7556 33.6362 11.6449 33.4371 11.6017 33.2189C11.5585 33.0006 11.585 32.7744 11.6775 32.5721L12.9462 29.8079C12.7775 29.4805 12.621 29.1469 12.4772 28.8078C12.3094 28.3927 12.154 27.9727 12.0114 27.5484L9.2317 26.702C9.00576 26.6337 8.80869 26.4927 8.67109 26.3009C8.5335 26.1091 8.46309 25.8773 8.47079 25.6414L8.57949 22.6582C8.58723 22.4636 8.64803 22.2747 8.75532 22.1122C8.86261 21.9496 9.01231 21.8194 9.18822 21.7358L12.1045 20.335C12.2396 19.8397 12.3577 19.4545 12.4617 19.1734C12.6082 18.798 12.7709 18.4291 12.9493 18.0678L11.6853 15.3967C11.5893 15.1939 11.5602 14.9659 11.6021 14.7454C11.6439 14.525 11.7546 14.3235 11.9182 14.1699L14.0985 12.1108C14.2513 11.9666 14.4425 11.8697 14.6491 11.8317C14.8558 11.7936 15.069 11.8161 15.2631 11.8965L18.2105 13.1139C18.5366 12.8965 18.8317 12.7211 19.0987 12.5797C19.4171 12.4105 19.8426 12.2334 20.3783 12.0424L21.4032 9.1835C21.479 8.97427 21.6175 8.79353 21.7998 8.66596C21.9822 8.53838 22.1994 8.4702 22.4219 8.47071H25.6737ZM24.0369 19.3707C21.4483 19.3707 19.3503 21.4438 19.3503 24.003C19.3503 26.5623 21.4483 28.637 24.0369 28.637C26.624 28.637 28.722 26.5623 28.722 24.003C28.722 21.4438 26.6256 19.3707 24.0369 19.3707Z" fill="white"/>
</svg>
