<svg width="48" height="48" viewBox="0 0 48 48" fill="none" xmlns="http://www.w3.org/2000/svg">
<rect width="48" height="48" rx="8" fill="#FF5F52"/>
<mask id="mask0_15_1146" style="mask-type:luminance" maskUnits="userSpaceOnUse" x="9" y="9" width="30" height="30">
<path d="M9.17627 9.17578H38.8233V38.8228H9.17627V9.17578Z" fill="white"/>
<path fill-rule="evenodd" clip-rule="evenodd" d="M21.6015 19.0963C20.9732 19.5672 20.6892 20.1317 20.6892 20.6585C20.6892 21.1864 20.9732 21.7509 21.6015 22.2229C22.2309 22.695 23.1522 23.0211 24.2184 23.0211C24.5208 23.0211 24.8108 23.1413 25.0247 23.3551C25.2385 23.5689 25.3586 23.859 25.3586 24.1614C25.3586 24.4638 25.2385 24.7538 25.0247 24.9677C24.8108 25.1815 24.5208 25.3017 24.2184 25.3017C22.7064 25.3017 21.2936 24.8433 20.2331 24.0474C19.1727 23.2515 18.4087 22.0656 18.4087 20.6596C18.4087 19.2525 19.1727 18.0666 20.2331 17.2707C21.2936 16.476 22.7075 16.0176 24.2184 16.0176C26.5594 16.0176 28.7726 17.1385 29.6529 19.0051C29.7819 19.2788 29.7969 19.5925 29.6945 19.8772C29.5922 20.162 29.381 20.3944 29.1073 20.5234C28.8336 20.6523 28.5199 20.6673 28.2352 20.565C27.9504 20.4627 27.718 20.2514 27.589 19.9777C27.1899 19.126 25.9447 18.2981 24.2195 18.2981C23.1534 18.2981 22.2309 18.6242 21.6015 19.0963Z" fill="black"/>
<path fill-rule="evenodd" clip-rule="evenodd" d="M26.4592 29.2256C27.0875 28.7547 27.3703 28.1902 27.3703 27.6634C27.3703 27.1344 27.0875 26.5699 26.4581 26.099C25.8298 25.6269 24.9073 25.3008 23.8423 25.3008C23.5399 25.3008 23.2498 25.1807 23.036 24.9668C22.8221 24.753 22.702 24.4629 22.702 24.1605C22.702 23.8581 22.8221 23.5681 23.036 23.3542C23.2498 23.1404 23.5399 23.0203 23.8423 23.0203C25.3543 23.0203 26.7671 23.4786 27.8275 24.2746C28.888 25.0705 29.6508 26.2563 29.6508 27.6623C29.6508 29.0683 28.888 30.2553 27.8264 31.05C26.7659 31.846 25.3543 32.3043 23.8423 32.3043C21.5013 32.3043 19.2869 31.1835 18.4077 29.3157C18.2788 29.0422 18.2637 28.7286 18.3659 28.444C18.4682 28.1593 18.6793 27.927 18.9528 27.798C19.2263 27.669 19.5399 27.654 19.8245 27.7562C20.1091 27.8584 20.3415 28.0695 20.4705 28.343C20.8719 29.196 22.117 30.0238 23.8423 30.0238C24.9084 30.0238 25.8298 29.6977 26.4592 29.2256ZM23.9996 13.7373C24.302 13.7373 24.5921 13.8574 24.8059 14.0713C25.0198 14.2851 25.1399 14.5752 25.1399 14.8776V16.0178C25.1399 16.3203 25.0198 16.6103 24.8059 16.8241C24.5921 17.038 24.302 17.1581 23.9996 17.1581C23.6972 17.1581 23.4072 17.038 23.1933 16.8241C22.9795 16.6103 22.8594 16.3203 22.8594 16.0178V14.8776C22.8594 14.5752 22.9795 14.2851 23.1933 14.0713C23.4072 13.8574 23.6972 13.7373 23.9996 13.7373Z" fill="black"/>
<path fill-rule="evenodd" clip-rule="evenodd" d="M23.9996 30.8408C24.3021 30.8408 24.5921 30.961 24.8059 31.1748C25.0198 31.3886 25.1399 31.6787 25.1399 31.9811V33.1214C25.1399 33.4238 25.0198 33.7138 24.8059 33.9277C24.5921 34.1415 24.3021 34.2616 23.9996 34.2616C23.6972 34.2616 23.4072 34.1415 23.1934 33.9277C22.9795 33.7138 22.8594 33.4238 22.8594 33.1214V31.9811C22.8594 31.6787 22.9795 31.3886 23.1934 31.1748C23.4072 30.961 23.6972 30.8408 23.9996 30.8408Z" fill="black"/>
</mask>
<g mask="url(#mask0_15_1146)">
<path d="M23.9998 38.8228C32.1866 38.8228 38.8233 32.1861 38.8233 23.9993C38.8233 15.8125 32.1866 9.17578 23.9998 9.17578C15.813 9.17578 9.17627 15.8125 9.17627 23.9993C9.17627 32.1861 15.813 38.8228 23.9998 38.8228Z" fill="white"/>
</g>
</svg>
