<svg width="48" height="48" viewBox="0 0 48 48" fill="none" xmlns="http://www.w3.org/2000/svg">
<rect width="48" height="48" rx="8" fill="#FF3E2E"/>
<path d="M34.5881 18.3528H33.8822V33.8822H14.1175V14.1175H29.6892C29.6469 13.8916 29.6469 13.6516 29.6469 13.4116C29.6469 12.7057 29.7598 11.9998 29.9434 11.2939H14.1175C12.5504 11.2939 11.2939 12.5504 11.2939 14.1175V33.8822C11.2939 34.631 11.5914 35.3492 12.1209 35.8787C12.6505 36.4082 13.3686 36.7057 14.1175 36.7057H33.8822C35.4492 36.7057 36.7057 35.4492 36.7057 33.8822V18.0563C35.9998 18.2398 35.2939 18.3528 34.5881 18.3528Z" fill="white"/>
<ellipse cx="33.8821" cy="14.1175" rx="2.82353" ry="2.82353" fill="white"/>
</svg>
