<svg width="48" height="48" viewBox="0 0 48 48" fill="none" xmlns="http://www.w3.org/2000/svg">
<rect width="48" height="48" rx="8" fill="#8E8D94"/>
<path d="M32.2137 20.0308V17.0502C32.2578 14.8251 31.4183 12.6732 29.879 11.0654C28.3396 9.45748 26.2257 8.52455 23.9998 8.4707C21.774 8.52455 19.6601 9.45748 18.1207 11.0654C16.5813 12.6732 15.7418 14.8251 15.7859 17.0502V20.0308H12.2939C11.7417 20.0308 11.2939 20.4785 11.2939 21.0308V36.0653C11.2939 36.6096 11.5103 37.1317 11.8954 37.5166C12.2805 37.9015 12.8028 38.1178 13.3474 38.1178H34.6522C35.1969 38.1178 35.7192 37.9015 36.1043 37.5166C36.4894 37.1317 36.7057 36.6096 36.7057 36.0653V21.0308C36.7057 20.4785 36.258 20.0308 35.7057 20.0308H32.2137ZM25.0266 30.5293V33.372H22.9731V30.4369C22.4732 30.1799 22.0763 29.7597 21.8482 29.2461C21.6202 28.7325 21.5746 28.1564 21.7192 27.6134C21.8638 27.0704 22.1898 26.5932 22.643 26.2608C23.0963 25.9285 23.6497 25.7611 24.2113 25.7863C24.7729 25.8116 25.3089 26.028 25.7305 26.3997C26.1521 26.7714 26.4339 27.276 26.5291 27.8298C26.6243 28.3836 26.5272 28.9532 26.2539 29.4443C25.9806 29.9353 25.5475 30.3181 25.0266 30.5293ZM30.1603 20.0308H17.8394V17.0502C17.7951 15.3694 18.4182 13.7395 19.5725 12.5165C20.7269 11.2935 22.3186 10.5769 23.9998 10.5232C25.6811 10.5769 27.2728 11.2935 28.4271 12.5165C29.5814 13.7395 30.2045 15.3694 30.1603 17.0502V20.0308Z" fill="white"/>
</svg>
