<svg width="48" height="48" viewBox="0 0 48 48" fill="none" xmlns="http://www.w3.org/2000/svg">
<rect width="48" height="48" rx="8" fill="#3B99FC"/>
<g clip-path="url(#clip0_15_1151)">
<path d="M13.9946 18.1735C19.5217 12.7651 28.4793 12.7651 34.005 18.1735L34.6699 18.8244C34.7356 18.8879 34.7878 18.9641 34.8235 19.0482C34.8591 19.1324 34.8775 19.2228 34.8775 19.3142C34.8775 19.4056 34.8591 19.4961 34.8235 19.5803C34.7878 19.6644 34.7356 19.7406 34.6699 19.8041L32.3956 22.0305C32.329 22.0962 32.2392 22.133 32.1457 22.133C32.0522 22.133 31.9624 22.0962 31.8958 22.0305L30.9796 21.1354C27.1255 17.3618 20.8756 17.3618 17.0215 21.1354L16.0417 22.0954C15.9745 22.1605 15.8846 22.197 15.7911 22.197C15.6975 22.197 15.6077 22.1605 15.5405 22.0954L13.2662 19.8677C13.2005 19.8042 13.1484 19.7282 13.1127 19.6442C13.0771 19.5601 13.0587 19.4698 13.0587 19.3785C13.0587 19.2872 13.0771 19.1968 13.1127 19.1128C13.1484 19.0288 13.2005 18.9528 13.2662 18.8893L13.9946 18.1735ZM38.709 22.7801L40.7335 24.7622C40.7991 24.8258 40.8513 24.902 40.887 24.9861C40.9226 25.0703 40.941 25.1607 40.941 25.2521C40.941 25.3435 40.9226 25.434 40.887 25.5181C40.8513 25.6023 40.7991 25.6784 40.7335 25.742L31.605 34.6799C31.4711 34.8104 31.2915 34.8834 31.1045 34.8834C30.9175 34.8834 30.738 34.8104 30.604 34.6799L24.1269 28.3368C24.0935 28.3036 24.0483 28.2849 24.0012 28.2849C23.9541 28.2849 23.9089 28.3036 23.8756 28.3368L17.397 34.6799C17.2631 34.8104 17.0835 34.8834 16.8965 34.8834C16.7095 34.8834 16.53 34.8104 16.396 34.6799L7.26616 25.742C7.20049 25.6784 7.14828 25.6023 7.11263 25.5181C7.07697 25.434 7.05859 25.3435 7.05859 25.2521C7.05859 25.1607 7.07697 25.0703 7.11263 24.9861C7.14828 24.902 7.20049 24.8258 7.26616 24.7622L9.29063 22.7801C9.42455 22.6497 9.60413 22.5766 9.7911 22.5766C9.97807 22.5766 10.1576 22.6497 10.2916 22.7801L16.7702 29.1232C16.8407 29.191 16.9523 29.191 17.0215 29.1232L23.5 22.7801C23.634 22.6497 23.8135 22.5766 24.0005 22.5766C24.1875 22.5766 24.3671 22.6497 24.501 22.7801L30.9796 29.1232C31.0502 29.191 31.1603 29.191 31.2309 29.1232L37.7095 22.7801C37.8431 22.6497 38.0225 22.5768 38.2092 22.5768C38.396 22.5768 38.5753 22.6497 38.709 22.7801Z" fill="white"/>
</g>
<defs>
<clipPath id="clip0_15_1151">
<rect width="33.8824" height="33.8824" fill="white" transform="translate(7.05859 7.05859)"/>
</clipPath>
</defs>
</svg>
