<svg width="48" height="48" viewBox="0 0 48 48" fill="none" xmlns="http://www.w3.org/2000/svg">
<rect width="48" height="48" rx="11.4118" fill="#34B835"/>
<path fill-rule="evenodd" clip-rule="evenodd" d="M15.5872 12.7061C12.436 12.7061 9.88135 15.2607 9.88135 18.4119V31.0002C9.88135 34.1514 12.436 36.7061 15.5872 36.7061H32.9755C36.1267 36.7061 38.6813 34.1514 38.6813 31.0002V18.4119C38.6813 15.2607 36.1267 12.7061 32.9755 12.7061H15.5872ZM32.6816 28.3061C34.6698 28.3061 36.2816 26.6943 36.2816 24.7061C36.2816 22.7178 34.6698 21.1061 32.6816 21.1061C30.6934 21.1061 29.0816 22.7178 29.0816 24.7061C29.0816 26.6943 30.6934 28.3061 32.6816 28.3061Z" fill="white"/>
</svg>
